{
  "accessors": [
    {
      "bufferView": 2,
      "componentType": 5126,
      "count": 2017,
      "max": [
        0.7245180010795593,
        0.19220000505447388,
        1.0051259994506836
      ],
      "min": [
        -0.5704820156097412,
        -0.2757999897003174,
        0.006525999866425991
      ],
      "type": "VEC3"
    },
    {
      "bufferView": 2,
      "byteOffset": 24204,
      "componentType": 5126,
      "count": 2017,
      "max": [
        1.0,
        1.0,
        1.0
      ],
      "min": [
        -1.0,
        -1.0,
        -1.0
      ],
      "type": "VEC3"
    },
    {
      "bufferView": 1,
      "componentType": 5126,
      "count": 2017,
      "max": [
        1.7848999500274658,
        1.999899983406067
      ],
      "min": [
        -1.9249999523162842,
        -0.602400004863739
      ],
      "type": "VEC2"
    },
    {
      "bufferView": 0,
      "componentType": 5125,
      "count": 7674,
      "type": "SCALAR"
    }
  ],
  "asset": {
    "extras": {
      "author": "sonicfan443 (https://sketchfab.com/sonicfan443)",
      "license": "CC-BY-4.0 (http://creativecommons.org/licenses/by/4.0/)",
      "source": "https://sketchfab.com/3d-models/spongebob-squarepants-4dc65614da13403fa45a9710b4b4d655",
      "title": "Spongebob Squarepants"
    },
    "generator": "Sketchfab-12.66.0",
    "version": "2.0"
  },
  "bufferViews": [
    {
      "buffer": 0,
      "byteLength": 30696,
      "name": "floatBufferViews",
      "target": 34963
    },
    {
      "buffer": 0,
      "byteLength": 16136,
      "byteOffset": 30696,
      "byteStride": 8,
      "name": "floatBufferViews",
      "target": 34962
    },
    {
      "buffer": 0,
      "byteLength": 48408,
      "byteOffset": 46832,
      "byteStride": 12,
      "name": "floatBufferViews",
      "target": 34962
    }
  ],
  "buffers": [
    {
      "byteLength": 95240,
      "uri": "scene.bin"
    }
  ],
  "images": [
    {
      "uri": "textures/spongebob_baseColor.png"
    }
  ],
  "materials": [
    {
      "doubleSided": true,
      "name": "spongebob",
      "pbrMetallicRoughness": {
        "baseColorTexture": {
          "index": 0
        },
        "metallicFactor": 0.0,
        "roughnessFactor": 0.6
      }
    }
  ],
  "meshes": [
    {
      "name": "Object_0",
      "primitives": [
        {
          "attributes": {
            "NORMAL": 1,
            "POSITION": 0,
            "TEXCOORD_0": 2
          },
          "indices": 3,
          "material": 0,
          "mode": 4
        }
      ]
    }
  ],
  "nodes": [
    {
      "children": [
        1
      ],
      "matrix": [
        1.0,
        0.0,
        0.0,
        0.0,
        0.0,
        2.220446049250313e-16,
        -1.0,
        0.0,
        0.0,
        1.0,
        2.220446049250313e-16,
        0.0,
        0.0,
        0.0,
        0.0,
        1.0
      ],
      "name": "Sketchfab_model"
    },
    {
      "children": [
        2
      ],
      "name": "spongebob_bind.obj.cleaner.gles"
    },
    {
      "mesh": 0,
      "name": "Object_2"
    }
  ],
  "samplers": [
    {
      "magFilter": 9729,
      "minFilter": 9987,
      "wrapS": 10497,
      "wrapT": 10497
    }
  ],
  "scene": 0,
  "scenes": [
    {
      "name": "Sketchfab_Scene",
      "nodes": [
        0
      ]
    }
  ],
  "textures": [
    {
      "sampler": 0,
      "source": 0
    }
  ]
}
